<svg width="800" height="545" viewBox="0 0 800 545" fill="none" xmlns="http://www.w3.org/2000/svg">
<path d="M400 0C248.716 0 122.418 87.8487 117.643 200.334C48.0312 225.991 0 281.582 0 345.866C0 432.437 77.9072 506.499 193.282 506.499C208.694 506.499 221.189 496.78 221.189 484.792C221.189 472.803 208.694 463.084 193.282 463.084C113.971 463.084 55.814 412.748 55.814 345.866C55.814 294.626 97.3796 251.215 155.008 235.23L174.431 229.842L173.513 213.818C173.383 211.539 173.317 209.246 173.317 206.941C173.317 117.971 273.021 43.4142 400 43.4142C519.137 43.4142 614.502 109.201 625.59 190.77L627.301 203.355L642.225 208.397C702.074 228.617 744.186 275.575 744.186 330.43C744.186 406.297 680.693 463.084 591.094 463.084C575.681 463.084 563.187 472.803 563.187 484.792C563.187 496.78 575.681 506.499 591.094 506.499C717.812 506.499 800 425.066 800 330.43C800 262.395 750.929 203.267 678.929 173.958C657.194 74.3422 539.304 0 400 0Z" fill="white"/>
<path d="M375.797 379.874C383.503 369.492 378.93 356.216 365.582 350.222C352.234 344.227 335.167 347.785 327.46 358.167L290.251 408.297C282.545 418.68 287.118 431.956 300.466 437.95C313.813 443.944 330.881 440.387 338.587 430.004L375.797 379.874Z" fill="white"/>
<path d="M504.694 437.76C512.4 427.377 507.827 414.101 494.479 408.107C481.131 402.113 464.064 405.67 456.358 416.053L419.148 466.183C411.442 476.565 416.015 489.841 429.363 495.835C442.711 501.83 459.778 498.272 467.484 487.89L504.694 437.76Z" fill="white"/>
<path d="M384.431 484.012C392.138 473.63 387.564 460.354 374.217 454.36C360.869 448.366 343.801 451.923 336.095 462.305L298.886 512.436C291.179 522.818 295.753 536.094 309.1 542.088C322.448 548.082 339.516 544.525 347.222 534.143L384.431 484.012Z" fill="white"/>
</svg>
