<svg width="600" height="727" viewBox="0 0 600 727" fill="none" xmlns="http://www.w3.org/2000/svg">
<path d="M300 0C195.68 0 111.111 79.0473 111.111 176.557C111.111 274.067 195.68 353.114 300 353.114C404.32 353.114 488.889 274.067 488.889 176.557C488.889 79.0473 404.32 0 300 0Z" fill="white"/>
<path d="M411.47 431.663C337.624 420.647 262.376 420.647 188.53 431.663L180.615 432.844C76.5632 448.365 0 532.257 0 630.747C0 683.906 46.1041 727 102.976 727H497.024C553.896 727 600 683.906 600 630.747C600 532.257 523.437 448.365 419.385 432.844L411.47 431.663Z" fill="white"/>
</svg>
